<svg width="36" height="33" viewBox="0 0 36 33" fill="none" xmlns="http://www.w3.org/2000/svg">
<g filter="url(#filter0_d_0_65)">
<path fill-rule="evenodd" clip-rule="evenodd" d="M4 12.5C4 12.1022 4.15802 11.7208 4.43929 11.4395C4.72056 11.1583 5.10205 11.0003 5.49983 11.0003H22.8769L16.4366 4.56343C16.155 4.28182 15.9968 3.89988 15.9968 3.50162C15.9968 3.10337 16.155 2.72142 16.4366 2.43982C16.7182 2.15821 17.1002 2 17.4985 2C17.8968 2 18.2787 2.15821 18.5604 2.43982L27.5594 11.4382C27.699 11.5775 27.8099 11.743 27.8855 11.9252C27.9611 12.1074 28 12.3027 28 12.5C28 12.6973 27.9611 12.8926 27.8855 13.0748C27.8099 13.257 27.699 13.4225 27.5594 13.5618L18.5604 22.5602C18.2787 22.8418 17.8968 23 17.4985 23C17.1002 23 16.7182 22.8418 16.4366 22.5602C16.155 22.2786 15.9968 21.8966 15.9968 21.4984C15.9968 21.1001 16.155 20.7182 16.4366 20.4366L22.8769 13.9997H5.49983C5.10205 13.9997 4.72056 13.8417 4.43929 13.5605C4.15802 13.2792 4 12.8978 4 12.5Z" fill="#EBEFF2"/>
</g>
<defs>
<filter id="filter0_d_0_65" x="0.8" y="0.8" width="34.4" height="31.4" filterUnits="userSpaceOnUse" color-interpolation-filters="sRGB">
<feFlood flood-opacity="0" result="BackgroundImageFix"/>
<feColorMatrix in="SourceAlpha" type="matrix" values="0 0 0 0 0 0 0 0 0 0 0 0 0 0 0 0 0 0 127 0" result="hardAlpha"/>
<feOffset dx="2" dy="4"/>
<feGaussianBlur stdDeviation="2.6"/>
<feComposite in2="hardAlpha" operator="out"/>
<feColorMatrix type="matrix" values="0 0 0 0 0 0 0 0 0 0 0 0 0 0 0 0 0 0 0.05 0"/>
<feBlend mode="normal" in2="BackgroundImageFix" result="effect1_dropShadow_0_65"/>
<feBlend mode="normal" in="SourceGraphic" in2="effect1_dropShadow_0_65" result="shape"/>
</filter>
</defs>
</svg>
